<svg width="29" height="28" viewBox="0 0 29 28" fill="none" xmlns="http://www.w3.org/2000/svg">
<g id="Icon / System / Folder Add ou-lc">
<path id="Shape" d="M24.1667 18.6667C24.1667 18.0223 23.6257 17.5 22.9583 17.5C22.291 17.5 21.75 18.0223 21.75 18.6667V21H19.3333C18.666 21 18.125 21.5223 18.125 22.1667C18.125 22.811 18.666 23.3333 19.3333 23.3333H21.75V25.6667C21.75 26.311 22.291 26.8333 22.9583 26.8333C23.6257 26.8333 24.1667 26.311 24.1667 25.6667V23.3333H26.5833C27.2507 23.3333 27.7917 22.811 27.7917 22.1667C27.7917 21.5223 27.2507 21 26.5833 21H24.1667V18.6667Z" fill="#292929"/>
<path id="Shape_2" fill-rule="evenodd" clip-rule="evenodd" d="M12.3537 7.06438C12.1079 7.00741 11.8327 6.99991 10.8886 6.99991H9.42435C8.38932 6.99991 7.68571 7.00082 7.14185 7.04372C6.6121 7.08551 6.34119 7.16126 6.15221 7.25423C5.69748 7.47793 5.32778 7.83489 5.09608 8.27393C4.99979 8.4564 4.92134 8.71797 4.87806 9.22945C4.83362 9.75456 4.83268 10.4339 4.83268 11.4332V16.5666C4.83268 17.5659 4.83362 18.2453 4.87806 18.7704C4.92134 19.2818 4.99979 19.5434 5.09608 19.7259C5.32778 20.1649 5.69748 20.5219 6.15221 20.7456C6.34119 20.8386 6.6121 20.9143 7.14185 20.9561C7.68571 20.999 8.38932 20.9999 9.42435 20.9999H14.4994C15.1667 20.9999 15.7077 21.5222 15.7077 22.1666C15.7077 22.8109 15.1667 23.3332 14.4994 23.3332H9.37448C8.40179 23.3333 7.59901 23.3333 6.94506 23.2817C6.26586 23.2281 5.64151 23.1131 5.05506 22.8246C4.14561 22.3772 3.40621 21.6633 2.94282 20.7852C2.64401 20.219 2.52491 19.6162 2.46942 18.9604C2.41599 18.329 2.416 17.5539 2.41602 16.6148V11.3851C2.416 10.4459 2.41599 9.67084 2.46942 9.03945C2.52491 8.38367 2.64401 7.78085 2.94282 7.21462C3.40621 6.33653 4.14561 5.62262 5.05506 5.17521C5.64151 4.88671 6.26586 4.77172 6.94506 4.71814C7.599 4.66655 8.40177 4.66656 9.37445 4.66658L10.8886 4.66658C10.9302 4.66658 10.9712 4.66656 11.0117 4.66654C11.779 4.66619 12.3587 4.66592 12.9178 4.79552C13.411 4.90984 13.8825 5.09839 14.3149 5.35426C14.8051 5.64432 15.2149 6.04032 15.7572 6.56441C15.7858 6.59208 15.8148 6.6201 15.8442 6.64849L16.2082 6.99991L19.6243 6.99991C20.5969 6.9999 21.3997 6.99988 22.0536 7.05147C22.7328 7.10505 23.3572 7.22004 23.9436 7.50855C24.8531 7.95596 25.5925 8.66987 26.0559 9.54796C26.3547 10.1142 26.4738 10.717 26.5293 11.3728C26.5827 12.0042 26.5827 12.7792 26.5827 13.7184V13.9999C26.5827 14.6442 26.0417 15.1666 25.3743 15.1666C24.707 15.1666 24.166 14.6442 24.166 13.9999V13.7666C24.166 12.7672 24.1651 12.0879 24.1206 11.5628C24.0774 11.0513 23.9989 10.7897 23.9026 10.6073C23.6709 10.1682 23.3012 9.81127 22.8465 9.58756C22.6575 9.49459 22.3866 9.41884 21.8568 9.37705C21.313 9.33415 20.6094 9.33324 19.5744 9.33324H15.7077C15.3872 9.33324 15.0799 9.21033 14.8533 8.99154L14.1354 8.2984C13.4678 7.65381 13.2677 7.47127 13.0522 7.34375C12.836 7.21582 12.6002 7.12154 12.3537 7.06438Z" fill="#292929"/>
</g>
</svg>
