<svg width="53" height="53" viewBox="0 0 53 53" fill="none" xmlns="http://www.w3.org/2000/svg">
<g id="Icon / System / File Edit ou-lc">
<path id="Shape" fill-rule="evenodd" clip-rule="evenodd" d="M28.708 8.83331H21.6413C19.7497 8.83331 18.4638 8.83503 17.4699 8.91624C16.5017 8.99534 16.0066 9.13872 15.6612 9.3147C14.8302 9.73814 14.1545 10.4138 13.7311 11.2449C13.5551 11.5902 13.4117 12.0854 13.3326 13.0535C13.2514 14.0475 13.2497 15.3334 13.2497 17.225V35.775C13.2497 37.6666 13.2514 38.9525 13.3326 39.9464C13.4117 40.9146 13.5551 41.4097 13.7311 41.7551C14.1545 42.5862 14.8302 43.2618 15.6612 43.6853C16.0066 43.8612 16.5017 44.0046 17.4699 44.0837C18.4638 44.1649 19.7497 44.1666 21.6413 44.1666H26.4997C27.7193 44.1666 28.708 45.1553 28.708 46.375C28.708 47.5946 27.7193 48.5833 26.4997 48.5833H21.5501C19.7725 48.5833 18.3054 48.5834 17.1102 48.4857C15.8689 48.3843 14.7279 48.1666 13.6561 47.6205C11.994 46.7737 10.6427 45.4223 9.79579 43.7602C9.24969 42.6884 9.03202 41.5474 8.9306 40.3061C8.83296 39.111 8.83298 37.6438 8.83301 35.8662V17.1338C8.83298 15.3561 8.83296 13.889 8.9306 12.6939C9.03202 11.4526 9.24969 10.3115 9.79579 9.23973C10.6427 7.57763 11.994 6.2263 13.6561 5.37942C14.7279 4.83332 15.8689 4.61566 17.1102 4.51424C18.3054 4.41659 19.7725 4.41661 21.5501 4.41664L28.959 4.41657C30.3613 4.41591 31.4208 4.4154 32.4426 4.66071C33.3439 4.8771 34.2056 5.234 34.9959 5.71832C35.8919 6.26737 36.6407 7.01694 37.6318 8.00897L40.574 10.9512C41.566 11.9422 42.3156 12.6911 42.8647 13.5871C43.349 14.3774 43.7059 15.2391 43.9223 16.1404C44.1676 17.1621 44.1671 18.2217 44.1664 19.6239L44.1663 26.5C44.1663 27.7196 43.1776 28.7083 41.958 28.7083C40.7384 28.7083 39.7497 27.7196 39.7497 26.5V19.875H35.333C31.6741 19.875 28.708 16.9089 28.708 13.25V8.83331ZM38.778 15.4583C38.5126 15.1445 38.0888 14.7121 37.2918 13.9152L34.6678 11.2912C33.8709 10.4942 33.4385 10.0704 33.1247 9.80503V13.25C33.1247 14.4696 34.1134 15.4583 35.333 15.4583H38.778Z" fill="white"/>
<path id="Shape_2" d="M35.1658 42.3613L33.2083 47.0563C32.8288 47.9665 33.7421 48.8798 34.6523 48.5003L39.3474 46.543C39.6136 46.4321 39.8554 46.2701 40.0592 46.0662L47.9277 38.1976C48.7901 37.3352 48.7901 35.9369 47.9276 35.0745L46.6341 33.781C45.7717 32.9187 44.3735 32.9187 43.5111 33.7811L35.6425 41.6496C35.4387 41.8535 35.2767 42.0952 35.1658 42.3613Z" fill="white"/>
</g>
</svg>
