<svg width="50" height="50" viewBox="0 0 50 50" fill="none" xmlns="http://www.w3.org/2000/svg">
<g id="Icon / Social Media and Brands / YouTube">
<path id="Shape" fill-rule="evenodd" clip-rule="evenodd" d="M24.9998 12.4997C19.6888 12.4997 15.2294 12.7026 11.9268 12.9264C10.1941 13.0438 8.80157 14.4105 8.68086 16.2669C8.49427 19.1365 8.33317 22.3858 8.33317 24.9997C8.33317 27.6136 8.49427 30.8629 8.68086 33.7324C8.80157 35.5888 10.1941 36.9555 11.9268 37.0729C15.2294 37.2968 19.6888 37.4997 24.9998 37.4997C30.3108 37.4997 34.7702 37.2968 38.0729 37.0729C39.8055 36.9555 41.1981 35.5888 41.3188 33.7324C41.5054 30.8629 41.6665 27.6136 41.6665 24.9997C41.6665 22.3858 41.5054 19.1365 41.3188 16.2669C41.1981 14.4105 39.8055 13.0438 38.0729 12.9264C34.7702 12.7026 30.3108 12.4997 24.9998 12.4997ZM11.6451 8.76928C7.76752 9.03207 4.77515 12.1183 4.52297 15.9965C4.33467 18.8924 4.1665 22.2487 4.1665 24.9997C4.1665 27.7506 4.33467 31.1069 4.52297 34.0028C4.77515 37.8811 7.76752 40.9673 11.6451 41.2301C15.0297 41.4594 19.5837 41.6663 24.9998 41.6663C30.4159 41.6663 34.97 41.4594 38.3546 41.2301C42.2322 40.9673 45.2245 37.8811 45.4767 34.0028C45.665 31.1069 45.8332 27.7506 45.8332 24.9997C45.8332 22.2487 45.665 18.8924 45.4767 15.9965C45.2245 12.1183 42.2322 9.03207 38.3546 8.76928C34.97 8.5399 30.4159 8.33301 24.9998 8.33301C19.5837 8.33301 15.0297 8.5399 11.6451 8.76928Z" fill="#292929"/>
<path id="Shape_2" d="M20.8335 20.8368C20.8335 19.1758 22.6821 18.1828 24.067 19.0997L30.3032 23.2289C31.5724 24.0692 31.5723 25.9323 30.3031 26.7726L24.0669 30.9012C22.682 31.8181 20.8335 30.825 20.8335 29.1641V20.8368Z" fill="#292929"/>
</g>
</svg>
