<svg width="59" height="59" viewBox="0 0 59 59" fill="none" xmlns="http://www.w3.org/2000/svg">
<g id="Icon / System / Login">
<path id="Shape" fill-rule="evenodd" clip-rule="evenodd" d="M27.0415 49.1667C27.0415 47.809 28.1421 46.7083 29.4998 46.7083L37.3665 46.7083C39.4723 46.7083 40.9037 46.7064 42.0102 46.616C43.088 46.528 43.6391 46.3684 44.0236 46.1724C44.9488 45.7011 45.7009 44.9489 46.1723 44.0238C46.3682 43.6393 46.5278 43.0881 46.6159 42.0104C46.7063 40.9039 46.7082 39.4724 46.7082 37.3667L46.7082 21.6333C46.7082 19.5276 46.7063 18.0961 46.6159 16.9896C46.5278 15.9119 46.3682 15.3607 46.1723 14.9762C45.7009 14.0511 44.9488 13.2989 44.0236 12.8275C43.6391 12.6316 43.088 12.472 42.0102 12.384C40.9037 12.2936 39.4723 12.2917 37.3665 12.2917L29.4998 12.2917C28.1421 12.2917 27.0415 11.191 27.0415 9.83333C27.0415 8.47564 28.1421 7.375 29.4998 7.375L37.4681 7.375C39.4469 7.37497 41.0801 7.37494 42.4106 7.48364C43.7924 7.59654 45.0626 7.83885 46.2557 8.44677C48.106 9.38952 49.6103 10.8938 50.5531 12.7441C51.161 13.9372 51.4033 15.2074 51.5162 16.5893C51.6249 17.9197 51.6249 19.553 51.6248 21.5319V37.4683C51.6249 39.4471 51.6249 41.0803 51.5162 42.4107C51.4033 43.7926 51.161 45.0628 50.5531 46.2559C49.6103 48.1062 48.106 49.6105 46.2557 50.5532C45.0626 51.1612 43.7924 51.4035 42.4106 51.5164C41.0801 51.6251 39.4469 51.625 37.468 51.625H29.4998C28.1421 51.625 27.0415 50.5244 27.0415 49.1667Z" fill="white"/>
<path id="Shape_2" d="M9.83333 31.9584C8.47563 31.9584 7.375 30.8578 7.375 29.5001C7.375 28.1424 8.47563 27.0417 9.83333 27.0417H30.9401L27.7617 23.8634C26.8017 22.9033 26.8017 21.3468 27.7617 20.3868C28.7217 19.4267 30.2783 19.4267 31.2383 20.3868L38.6133 27.7618C39.5733 28.7218 39.5733 30.2783 38.6133 31.2384L31.2383 38.6134C30.2783 39.5734 28.7217 39.5734 27.7617 38.6134C26.8017 37.6533 26.8017 36.0968 27.7617 35.1368L30.9401 31.9584H9.83333Z" fill="white"/>
</g>
</svg>
