<svg width="50" height="50" viewBox="0 0 50 50" fill="none" xmlns="http://www.w3.org/2000/svg">
<g id="Icon / Social Media and Brands / Instagram">
<path id="Shape" fill-rule="evenodd" clip-rule="evenodd" d="M6.25 16.6667C6.25 10.9137 10.9137 6.25 16.6667 6.25H33.3333C39.0863 6.25 43.75 10.9137 43.75 16.6667V33.3333C43.75 39.0863 39.0863 43.75 33.3333 43.75H16.6667C10.9137 43.75 6.25 39.0863 6.25 33.3333V16.6667ZM16.6667 10.4167C13.2149 10.4167 10.4167 13.2149 10.4167 16.6667V33.3333C10.4167 36.7851 13.2149 39.5833 16.6667 39.5833H33.3333C36.7851 39.5833 39.5833 36.7851 39.5833 33.3333V16.6667C39.5833 13.2149 36.7851 10.4167 33.3333 10.4167H16.6667Z" fill="#292929"/>
<path id="Shape_2" fill-rule="evenodd" clip-rule="evenodd" d="M34.3748 17.7087C35.5254 17.7087 36.4582 16.7759 36.4582 15.6253C36.4582 14.4747 35.5254 13.542 34.3748 13.542C33.2242 13.542 32.2915 14.4747 32.2915 15.6253C32.2915 16.7759 33.2242 17.7087 34.3748 17.7087ZM20.8332 25.0003C20.8332 22.6991 22.6987 20.8337 24.9998 20.8337C27.301 20.8337 29.1665 22.6991 29.1665 25.0003C29.1665 27.3015 27.301 29.167 24.9998 29.167C22.6987 29.167 20.8332 27.3015 20.8332 25.0003ZM24.9998 16.667C20.3975 16.667 16.6665 20.398 16.6665 25.0003C16.6665 29.6027 20.3975 33.3337 24.9998 33.3337C29.6022 33.3337 33.3332 29.6027 33.3332 25.0003C33.3332 20.398 29.6022 16.667 24.9998 16.667Z" fill="#292929"/>
</g>
</svg>
