<svg width="56" height="56" viewBox="0 0 56 56" fill="none" xmlns="http://www.w3.org/2000/svg">
<g id="Icon / Chart and Graphs / Line 03 Up">
<path id="Shape" fill-rule="evenodd" clip-rule="evenodd" d="M39.2946 21.1929L35.8646 28.053C37.4959 28.254 38.9535 29.0163 40.0382 30.1407L43.4683 23.2805C41.8369 23.0796 40.3794 22.3173 39.2946 21.1929ZM31.9818 28.6823C30.5404 29.3721 29.3718 30.5407 28.682 31.9821L24.0177 27.3179C25.4592 26.6281 26.6278 25.4595 27.3176 24.0181L31.9818 28.6823ZM15.9613 25.8595L12.5312 32.7197C14.1626 32.9207 15.6202 33.6829 16.7049 34.8073L20.135 27.9472C18.5036 27.7462 17.046 26.9839 15.9613 25.8595Z" fill="white"/>
<path id="Shape_2" fill-rule="evenodd" clip-rule="evenodd" d="M46.667 16.3333C46.667 17.6219 45.6223 18.6666 44.3337 18.6666C43.045 18.6666 42.0003 17.6219 42.0003 16.3333C42.0003 15.0446 43.045 13.9999 44.3337 13.9999C45.6223 13.9999 46.667 15.0446 46.667 16.3333ZM51.3337 16.3333C51.3337 20.1992 48.1996 23.3333 44.3337 23.3333C40.4677 23.3333 37.3337 20.1992 37.3337 16.3333C37.3337 12.4673 40.4677 9.33325 44.3337 9.33325C48.1996 9.33325 51.3337 12.4673 51.3337 16.3333ZM23.3337 20.9999C23.3337 22.2886 22.289 23.3333 21.0003 23.3333C19.7117 23.3333 18.667 22.2886 18.667 20.9999C18.667 19.7113 19.7117 18.6666 21.0003 18.6666C22.289 18.6666 23.3337 19.7113 23.3337 20.9999ZM28.0003 20.9999C28.0003 24.8659 24.8663 27.9999 21.0003 27.9999C17.1343 27.9999 14.0003 24.8659 14.0003 20.9999C14.0003 17.1339 17.1343 13.9999 21.0003 13.9999C24.8663 13.9999 28.0003 17.1339 28.0003 20.9999ZM14.0003 39.6666C14.0003 40.9552 12.9557 41.9999 11.667 41.9999C10.3783 41.9999 9.33366 40.9552 9.33366 39.6666C9.33366 38.3779 10.3783 37.3333 11.667 37.3333C12.9557 37.3333 14.0003 38.3779 14.0003 39.6666ZM18.667 39.6666C18.667 43.5326 15.533 46.6666 11.667 46.6666C7.801 46.6666 4.66699 43.5326 4.66699 39.6666C4.66699 35.8006 7.801 32.6666 11.667 32.6666C15.533 32.6666 18.667 35.8006 18.667 39.6666ZM35.0003 37.3333C36.289 37.3333 37.3337 36.2886 37.3337 34.9999C37.3337 33.7113 36.289 32.6666 35.0003 32.6666C33.7117 32.6666 32.667 33.7113 32.667 34.9999C32.667 36.2886 33.7117 37.3333 35.0003 37.3333ZM35.0003 41.9999C38.8663 41.9999 42.0003 38.8659 42.0003 34.9999C42.0003 31.1339 38.8663 27.9999 35.0003 27.9999C31.1343 27.9999 28.0003 31.1339 28.0003 34.9999C28.0003 38.8659 31.1343 41.9999 35.0003 41.9999Z" fill="white"/>
</g>
</svg>
