<svg width="50" height="50" viewBox="0 0 50 50" fill="none" xmlns="http://www.w3.org/2000/svg">
<g id="Icon / Chart and Graphs / Mail">
<path id="Shape" fill-rule="evenodd" clip-rule="evenodd" d="M16.1638 8.33301H33.8359C35.5129 8.33298 36.897 8.33296 38.0245 8.42508C39.1955 8.52076 40.272 8.7261 41.2831 9.24129C42.8511 10.0402 44.126 11.3151 44.9249 12.8831C45.4401 13.8942 45.6454 14.9707 45.7411 16.1417C45.8332 17.2692 45.8332 18.6533 45.8332 20.3303V29.6691C45.8332 31.3461 45.8332 32.7302 45.7411 33.8577C45.6454 35.0287 45.4401 36.1052 44.9249 37.1163C44.126 38.6843 42.8511 39.9591 41.2831 40.7581C40.272 41.2733 39.1955 41.4786 38.0245 41.5743C36.897 41.6664 35.5129 41.6664 33.8358 41.6663H16.1638C14.4868 41.6664 13.1027 41.6664 11.9752 41.5743C10.8042 41.4786 9.7277 41.2733 8.71659 40.7581C7.14857 39.9591 5.87373 38.6843 5.07478 37.1163C4.5596 36.1052 4.35425 35.0287 4.25858 33.8577C4.16646 32.7302 4.16648 31.3461 4.1665 29.6691V20.3303C4.16648 18.6533 4.16646 17.2692 4.25858 16.1417C4.35425 14.9707 4.5596 13.8942 5.07478 12.8831C5.87373 11.3151 7.14857 10.0402 8.71659 9.24129C9.7277 8.7261 10.8042 8.52076 11.9752 8.42508C13.1027 8.33296 14.4868 8.33298 16.1638 8.33301ZM12.3145 12.5779C11.4011 12.6525 10.934 12.7878 10.6082 12.9538C9.8242 13.3533 9.18679 13.9907 8.78731 14.7747C8.62129 15.1005 8.48603 15.5676 8.41141 16.481C8.33479 17.4187 8.33317 18.6318 8.33317 20.4163V29.583C8.33317 31.3676 8.33479 32.5807 8.41141 33.5184C8.48603 34.4317 8.62129 34.8988 8.78731 35.2246C9.18679 36.0087 9.8242 36.6461 10.6082 37.0455C10.934 37.2116 11.4011 37.3468 12.3145 37.4214C13.2522 37.4981 14.4653 37.4997 16.2498 37.4997H33.7498C35.5344 37.4997 36.7475 37.4981 37.6852 37.4214C38.5985 37.3468 39.0656 37.2116 39.3915 37.0455C40.1755 36.6461 40.8129 36.0087 41.2124 35.2246C41.3784 34.8988 41.5137 34.4317 41.5883 33.5184C41.6649 32.5807 41.6665 31.3676 41.6665 29.583V20.4163C41.6665 18.6318 41.6649 17.4187 41.5883 16.481C41.5137 15.5676 41.3784 15.1005 41.2124 14.7747C40.8129 13.9907 40.1755 13.3533 39.3915 12.9538C39.0656 12.7878 38.5985 12.6525 37.6852 12.5779C36.7475 12.5013 35.5344 12.4997 33.7498 12.4997H16.2498C14.4653 12.4997 13.2522 12.5013 12.3145 12.5779Z" fill="#292929"/>
<path id="Shape_2" fill-rule="evenodd" clip-rule="evenodd" d="M12.8656 17.571C13.5165 16.6222 14.8132 16.3807 15.762 17.0316L23.8217 22.5605C24.5318 23.0477 25.4686 23.0477 26.1787 22.5605L34.2383 17.0316C35.1871 16.3807 36.4839 16.6222 37.1348 17.571C37.7857 18.5198 37.5442 19.8166 36.5954 20.4675L28.5357 25.9964C26.4053 27.4579 23.5951 27.4579 21.4646 25.9964L13.405 20.4675C12.4562 19.8166 12.2147 18.5198 12.8656 17.571Z" fill="#292929"/>
</g>
</svg>
