<svg width="62" height="62" viewBox="0 0 62 62" fill="none" xmlns="http://www.w3.org/2000/svg">
<g id="Icon / System / Icon / Design / Calendar">
<path id="Shape" fill-rule="evenodd" clip-rule="evenodd" d="M26.7561 7.75H35.2439C38.0437 7.74997 40.3019 7.74995 42.1306 7.89936C44.0135 8.0532 45.6673 8.37822 47.1974 9.15783C49.6278 10.3962 51.6038 12.3722 52.8422 14.8026C53.6218 16.3327 53.9468 17.9865 54.1006 19.8694C54.25 21.6981 54.25 23.9563 54.25 26.756V35.244C54.25 38.0437 54.25 40.3019 54.1006 42.1306C53.9468 44.0135 53.6218 45.6673 52.8422 47.1974C51.6038 49.6278 49.6278 51.6038 47.1974 52.8422C45.6673 53.6218 44.0135 53.9468 42.1306 54.1006C40.3019 54.25 38.0437 54.25 35.244 54.25H26.756C23.9563 54.25 21.6981 54.25 19.8694 54.1006C17.9865 53.9468 16.3327 53.6218 14.8026 52.8422C12.3722 51.6038 10.3962 49.6278 9.15783 47.1974C8.37822 45.6673 8.0532 44.0135 7.89936 42.1306C7.74995 40.3019 7.74997 38.0437 7.75 35.2439V26.7561C7.74997 23.9563 7.74995 21.6981 7.89936 19.8694C8.0532 17.9865 8.37822 16.3327 9.15783 14.8026C10.3962 12.3722 12.3722 10.3962 14.8026 9.15783C16.3327 8.37822 17.9865 8.0532 19.8694 7.89936C21.6981 7.74995 23.9563 7.74997 26.7561 7.75ZM20.2901 13.0489C18.7268 13.1766 17.8286 13.4147 17.1482 13.7614C15.69 14.5044 14.5044 15.69 13.7614 17.1482C13.4147 17.8286 13.1766 18.7268 13.0489 20.2901C12.9187 21.8836 12.9167 23.9304 12.9167 26.8667V35.1333C12.9167 38.0696 12.9187 40.1164 13.0489 41.7099C13.1766 43.2732 13.4147 44.1714 13.7614 44.8518C14.5044 46.31 15.69 47.4956 17.1482 48.2386C17.8286 48.5853 18.7268 48.8234 20.2901 48.9511C21.8836 49.0813 23.9304 49.0833 26.8667 49.0833H35.1333C38.0696 49.0833 40.1164 49.0813 41.7099 48.9511C43.2732 48.8234 44.1714 48.5853 44.8518 48.2386C46.31 47.4956 47.4956 46.31 48.2386 44.8518C48.5853 44.1714 48.8234 43.2732 48.9511 41.7099C49.0813 40.1164 49.0833 38.0696 49.0833 35.1333V26.8667C49.0833 23.9304 49.0813 21.8836 48.9511 20.2901C48.8234 18.7268 48.5853 17.8286 48.2386 17.1482C47.4956 15.69 46.31 14.5044 44.8518 13.7614C44.1714 13.4147 43.2732 13.1766 41.7099 13.0489C40.1164 12.9187 38.0696 12.9167 35.1333 12.9167H26.8667C23.9304 12.9167 21.8836 12.9187 20.2901 13.0489Z" fill="white"/>
<g id="Shape_2">
<path fill-rule="evenodd" clip-rule="evenodd" d="M23.2502 30.9999C23.2502 32.4267 22.0936 33.5833 20.6668 33.5833C19.2401 33.5833 18.0835 32.4267 18.0835 30.9999C18.0835 29.5732 19.2401 28.4166 20.6668 28.4166C22.0936 28.4166 23.2502 29.5732 23.2502 30.9999ZM33.5835 30.9999C33.5835 32.4267 32.4269 33.5833 31.0002 33.5833C29.5734 33.5833 28.4168 32.4267 28.4168 30.9999C28.4168 29.5732 29.5734 28.4166 31.0002 28.4166C32.4269 28.4166 33.5835 29.5732 33.5835 30.9999ZM41.3335 33.5833C42.7602 33.5833 43.9168 32.4267 43.9168 30.9999C43.9168 29.5732 42.7602 28.4166 41.3335 28.4166C39.9068 28.4166 38.7502 29.5732 38.7502 30.9999C38.7502 32.4267 39.9068 33.5833 41.3335 33.5833ZM23.2502 41.3333C23.2502 42.76 22.0936 43.9166 20.6668 43.9166C19.2401 43.9166 18.0835 42.76 18.0835 41.3333C18.0835 39.9065 19.2401 38.7499 20.6668 38.7499C22.0936 38.7499 23.2502 39.9065 23.2502 41.3333ZM31.0002 43.9166C32.4269 43.9166 33.5835 42.76 33.5835 41.3333C33.5835 39.9065 32.4269 38.7499 31.0002 38.7499C29.5734 38.7499 28.4168 39.9065 28.4168 41.3333C28.4168 42.76 29.5734 43.9166 31.0002 43.9166ZM41.3335 43.9166C42.7602 43.9166 43.9168 42.76 43.9168 41.3333C43.9168 39.9065 42.7602 38.7499 41.3335 38.7499C39.9068 38.7499 38.7502 39.9065 38.7502 41.3333C38.7502 42.76 39.9068 43.9166 41.3335 43.9166Z" fill="white"/>
<path fill-rule="evenodd" clip-rule="evenodd" d="M23.2502 20.6666C23.2502 22.0933 22.0936 23.2499 20.6668 23.2499C19.2401 23.2499 18.0835 22.0933 18.0835 20.6666C18.0835 19.2398 19.2401 18.0833 20.6668 18.0833C22.0936 18.0833 23.2502 19.2398 23.2502 20.6666ZM33.5835 20.6666C33.5835 22.0933 32.4269 23.2499 31.0002 23.2499C29.5734 23.2499 28.4168 22.0933 28.4168 20.6666C28.4168 19.2398 29.5734 18.0833 31.0002 18.0833C32.4269 18.0833 33.5835 19.2398 33.5835 20.6666ZM41.3335 23.2499C42.7602 23.2499 43.9168 22.0933 43.9168 20.6666C43.9168 19.2398 42.7602 18.0833 41.3335 18.0833C39.9068 18.0833 38.7502 19.2398 38.7502 20.6666C38.7502 22.0933 39.9068 23.2499 41.3335 23.2499ZM23.2502 30.9999C23.2502 32.4267 22.0936 33.5833 20.6668 33.5833C19.2401 33.5833 18.0835 32.4267 18.0835 30.9999C18.0835 29.5732 19.2401 28.4166 20.6668 28.4166C22.0936 28.4166 23.2502 29.5732 23.2502 30.9999ZM31.0002 33.5833C32.4269 33.5833 33.5835 32.4267 33.5835 30.9999C33.5835 29.5732 32.4269 28.4166 31.0002 28.4166C29.5734 28.4166 28.4168 29.5732 28.4168 30.9999C28.4168 32.4267 29.5734 33.5833 31.0002 33.5833ZM41.3335 33.5833C42.7602 33.5833 43.9168 32.4267 43.9168 30.9999C43.9168 29.5732 42.7602 28.4166 41.3335 28.4166C39.9068 28.4166 38.7502 29.5732 38.7502 30.9999C38.7502 32.4267 39.9068 33.5833 41.3335 33.5833Z" fill="white"/>
</g>
</g>
</svg>
