<svg width="30" height="31" viewBox="0 0 30 31" fill="none" xmlns="http://www.w3.org/2000/svg">
<g id="Icon / System / Search">
<path id="Shape" fill-rule="evenodd" clip-rule="evenodd" d="M17.2411 17.8158C17.7293 17.3114 18.5207 17.3114 19.0089 17.8158L25.8839 24.92C26.372 25.4244 26.372 26.2423 25.8839 26.7467C25.3957 27.2511 24.6043 27.2511 24.1161 26.7467L17.2411 19.6425C16.753 19.1381 16.753 18.3202 17.2411 17.8158Z" fill="#292929"/>
<path id="Shape_2" fill-rule="evenodd" clip-rule="evenodd" d="M12.5 6.45833C9.04822 6.45833 6.25 9.34983 6.25 12.9167C6.25 16.4835 9.04822 19.375 12.5 19.375C15.9518 19.375 18.75 16.4835 18.75 12.9167C18.75 9.34983 15.9518 6.45833 12.5 6.45833ZM3.75 12.9167C3.75 7.92309 7.66751 3.875 12.5 3.875C17.3325 3.875 21.25 7.92309 21.25 12.9167C21.25 17.9102 17.3325 21.9583 12.5 21.9583C7.66751 21.9583 3.75 17.9102 3.75 12.9167Z" fill="#292929"/>
</g>
</svg>
