<svg width="147" height="40" viewBox="0 0 147 40" fill="none" xmlns="http://www.w3.org/2000/svg">
<g id="Group">
<path id="Vector" d="M68.022 0.48291V39.9998H76.4887V19.5266L101.395 39.9998V0.48291H92.9259V20.2401L68.022 0.48291Z" fill="#292929"/>
<path id="Vector_2" d="M127.064 0L108.128 40H117.76L120.011 34.7842H127.067H134.122L136.374 40H146.005L127.064 0ZM127.064 27.4743H123.578L127.064 19.5071L130.551 27.4743H127.064Z" fill="#292929"/>
<path id="Vector_3" d="M15.0063 0C9.35773 0 0 0 0 0V40H8.55875V26.7558H14.5487C14.5487 26.7558 27.6156 26.5817 27.6156 13.5802C27.6156 5.43158 20.6548 0 15.0063 0ZM15.5389 18.5728H8.6217V13.4159V8.25895H15.5389C15.5389 8.25895 20.3546 8.31535 20.3546 13.4159C20.3546 18.5164 15.5389 18.5728 15.5389 18.5728Z" fill="#292929"/>
<g id="Group_2">
<path id="Vector_4" d="M42.779 10.3604L37.9028 15.3015V35.0612L42.779 39.9999H52.5338L57.4124 35.0612V15.3015L52.5338 10.3604L47.6576 15.3015L42.779 10.3604Z" fill="#FFD700"/>
<path id="Vector_5" d="M42.779 0.48291L37.9028 5.42161L47.6576 15.3014L57.4124 5.42161L52.5338 0.48291L47.6576 5.42161L42.779 0.48291Z" fill="#76ABAC"/>
<g id="Group_3">
<g id="Group_4">
<path id="Vector_6" d="M47.6574 35.061L52.5336 39.9997H42.7788L47.6574 35.061Z" fill="#F7B313"/>
</g>
<g id="Group_5">
<path id="Vector_7" d="M52.5332 0.48291L57.4118 5.42161L52.5332 10.3603V0.48291Z" fill="#5F98A4"/>
<path id="Vector_8" d="M47.6572 5.42139L52.5334 10.3601L47.6572 15.3012V5.42139Z" fill="#5F98A4"/>
<path id="Vector_9" d="M52.5332 10.3604L57.4118 15.3015L52.5332 20.2402V10.3604Z" fill="#F7B313"/>
<path id="Vector_10" d="M52.5332 20.2402L57.4118 25.1814L52.5332 30.1201V20.2402Z" fill="#F7B313"/>
<path id="Vector_11" d="M52.5332 30.1201L57.4118 35.0613L52.5332 40V30.1201Z" fill="#F7B313"/>
<path id="Vector_12" d="M47.6572 15.3013L52.5334 20.24L47.6572 25.1811V15.3013Z" fill="#F7B313"/>
<path id="Vector_13" d="M47.6572 25.1812L52.5334 30.1198L47.6572 35.061V25.1812Z" fill="#F7B313"/>
</g>
</g>
</g>
</g>
</svg>
